<?xml version="1.0" encoding="UTF-8" standalone="no"?>
<!-- Created with Inkscape (http://www.inkscape.org/) -->

<svg
   xmlns:dc="http://purl.org/dc/elements/1.1/"
   xmlns:cc="http://creativecommons.org/ns#"
   xmlns:rdf="http://www.w3.org/1999/02/22-rdf-syntax-ns#"
   xmlns:svg="http://www.w3.org/2000/svg"
   xmlns="http://www.w3.org/2000/svg"
   xmlns:sodipodi="http://sodipodi.sourceforge.net/DTD/sodipodi-0.dtd"
   xmlns:inkscape="http://www.inkscape.org/namespaces/inkscape"
   width="120"
   height="400"
   id="svg4953"
   version="1.1"
   inkscape:version="0.91 r13725"
   viewBox="0 0 120 400"
   sodipodi:docname="sprites.svg"
   inkscape:export-filename="C:\xampp55\htdocs\deo\assets\img\sprites.png"
   inkscape:export-xdpi="90"
   inkscape:export-ydpi="90">
  <defs
     id="defs4955" />
  <sodipodi:namedview
     id="base"
     pagecolor="#ffffff"
     bordercolor="#666666"
     borderopacity="1.0"
     inkscape:pageopacity="0.0"
     inkscape:pageshadow="2"
     inkscape:zoom="4.331029"
     inkscape:cx="71.689876"
     inkscape:cy="194.70673"
     inkscape:document-units="px"
     inkscape:current-layer="layer1"
     showgrid="false"
     borderlayer="true"
     inkscape:showpageshadow="false"
     inkscape:snap-page="true"
     showguides="true"
     inkscape:guide-bbox="true"
     inkscape:window-width="1920"
     inkscape:window-height="1018"
     inkscape:window-x="-8"
     inkscape:window-y="-8"
     inkscape:window-maximized="1">
    <sodipodi:guide
       position="0,340"
       orientation="0,1"
       id="guide6066"
       inkscape:label=""
       inkscape:color="rgb(0,0,255)" />
    <sodipodi:guide
       position="0,220"
       orientation="0,1"
       id="guide6068"
       inkscape:label=""
       inkscape:color="rgb(0,0,255)" />
    <sodipodi:guide
       position="37,280"
       orientation="0,1"
       id="guide6070"
       inkscape:label=""
       inkscape:color="rgb(0,0,255)" />
    <sodipodi:guide
       position="0,140"
       orientation="0,1"
       id="guide3353"
       inkscape:label=""
       inkscape:color="rgb(0,0,255)" />
  </sodipodi:namedview>
  <metadata
     id="metadata4958">
    <rdf:RDF>
      <cc:Work
         rdf:about="">
        <dc:format>image/svg+xml</dc:format>
        <dc:type
           rdf:resource="http://purl.org/dc/dcmitype/StillImage" />
        <dc:title />
      </cc:Work>
    </rdf:RDF>
  </metadata>
  <g
     id="layer1"
     inkscape:label="Layer 1"
     inkscape:groupmode="layer"
     transform="translate(0,340)">
    <path
       style="color:#000000;display:inline;overflow:visible;visibility:visible;opacity:1;fill:#000000;fill-opacity:1;fill-rule:nonzero;stroke:none;stroke-width:2;stroke-linecap:round;stroke-linejoin:round;stroke-miterlimit:4;stroke-dasharray:none;stroke-dashoffset:0;stroke-opacity:1;marker:none;enable-background:accumulate"
       d="M 15,0 A 15,15 0 0 0 0,15 15,15 0 0 0 15,30 15,15 0 0 0 30,15 15,15 0 0 0 15,0 Z m -4.724609,7.7226562 c 0.518054,0.00532 1.005456,0.3516644 1.552734,1.0371094 0.595104,0.73326 0.914062,1.4028834 0.914063,1.9023434 0,0.51008 -0.06329,0.637385 -0.679688,1.328125 -0.56321,0.64823 -0.595285,0.807093 -0.287109,1.476563 0.286913,0.61636 0.839888,1.316919 1.923828,2.443359 1.562127,1.60463 2.836602,2.519532 3.527343,2.519532 0.244417,0 0.384162,-0.07534 0.777344,-0.447266 0.658863,-0.62698 0.945469,-0.754302 1.498047,-0.701172 0.510098,0.0532 1.030435,0.319817 1.763672,0.904297 0.658863,0.52071 0.956639,0.967561 1.009766,1.488281 0.05324,0.57385 -0.137624,0.934578 -0.945313,1.742188 -0.743869,0.75452 -0.978208,0.871938 -1.849609,0.861328 -0.276296,0 -0.765177,-0.07515 -1.083985,-0.160156 -2.189111,-0.573841 -4.452823,-2.050324 -6.673828,-4.345704 -1.487738,-1.51964 -2.4759524,-2.923792 -3.2304685,-4.539062 -0.4144451,-0.87138 -0.7753906,-2.156629 -0.7753906,-2.730469 0,-0.7757599 0.1479838,-1.0846605 0.828125,-1.7753905 C 9.2090928,8.0517525 9.7573362,7.71734 10.275391,7.7226562 Z"
       transform="translate(0,-340)"
       id="path5501"
       inkscape:connector-curvature="0" />
    <path
       style="color:#000000;display:inline;overflow:visible;visibility:visible;opacity:1;fill:#000000;fill-opacity:1;fill-rule:nonzero;stroke:none;stroke-width:2;stroke-linecap:round;stroke-linejoin:round;stroke-miterlimit:4;stroke-dasharray:none;stroke-dashoffset:0;stroke-opacity:1;marker:none;enable-background:accumulate"
       d="M 15 60 A 15 15 0 0 0 0 75 A 15 15 0 0 0 15 90 A 15 15 0 0 0 30 75 A 15 15 0 0 0 15 60 z M 10.921875 65.9375 L 19.078125 65.9375 C 19.83122 65.9375 20.4375 66.543785 20.4375 67.296875 L 20.4375 82.703125 C 20.4375 83.456215 19.83122 84.0625 19.078125 84.0625 L 10.921875 84.0625 C 10.168781 84.0625 9.5625 83.456215 9.5625 82.703125 L 9.5625 67.296875 C 9.5625 66.543785 10.168781 65.9375 10.921875 65.9375 z M 10.46875 67.75 L 10.46875 80.4375 L 19.53125 80.4375 L 19.53125 67.75 L 10.46875 67.75 z M 15 81.34375 A 0.90625 0.90625 0 0 0 14.09375 82.25 A 0.90625 0.90625 0 0 0 15 83.15625 A 0.90625 0.90625 0 0 0 15.90625 82.25 A 0.90625 0.90625 0 0 0 15 81.34375 z "
       transform="translate(0,-340)"
       id="path5501-3" />
    <path
       style="color:#000000;display:inline;overflow:visible;visibility:visible;opacity:1;fill:#000000;fill-opacity:1;fill-rule:nonzero;stroke:none;stroke-width:2;stroke-linecap:round;stroke-linejoin:round;stroke-miterlimit:4;stroke-dasharray:none;stroke-dashoffset:0;stroke-opacity:1;marker:none;enable-background:accumulate"
       d="M 15,120 A 15,15 0 0 0 0,135 15,15 0 0 0 15,150 15,15 0 0 0 30,135 15,15 0 0 0 15,120 Z m 6.943359,8.125 c 0.990641,-0.0272 0.04461,1.24189 -0.0293,1.75781 -1.332502,3.61037 -2.621714,7.23755 -3.974609,10.83985 -0.215455,0.4743 -0.743908,0.66612 -1.234375,0.54882 -0.808263,-0.41498 -1.482102,-1.05302 -2.238281,-1.55468 -0.723832,-0.53015 -1.454791,-1.05068 -2.177735,-1.58203 2.559503,-2.62649 5.217122,-5.15639 7.816407,-7.74415 0.507734,-0.5069 1.024426,-1.00611 1.521484,-1.52343 -3.547635,2.7686 -7.075149,5.56391 -10.617187,8.33984 -1.0332175,-0.78497 -2.1155479,-1.50567 -3.1328129,-2.31055 -0.7136066,-0.73966 0.1216153,-1.64322 0.9277344,-1.74414 4.3806245,-1.67264 8.7542295,-3.36527 13.1386715,-5.02734 z m -11.625,9.8418 c 1.183498,0.83689 2.37641,1.6743 3.533203,2.54101 -0.606156,0.49261 -1.281287,0.90388 -1.947265,1.3125 -0.160758,0.0663 -0.348103,0.072 -0.513672,0.0195 -0.668352,-0.2894 -0.512209,-1.16399 -0.697266,-1.74804 -0.122401,-0.70816 -0.272279,-1.41472 -0.375,-2.125 z"
       transform="translate(0,-340)"
       id="circle6072"
       inkscape:connector-curvature="0" />
    <g
       style="font-style:normal;font-variant:normal;font-weight:normal;font-stretch:normal;font-size:48px;line-height:125%;font-family:arial;-inkscape-font-specification:arial;letter-spacing:0px;word-spacing:0px;fill:#e6e6db;fill-opacity:1;stroke:none;stroke-width:1px;stroke-linecap:butt;stroke-linejoin:miter;stroke-opacity:1"
       id="text6074"
       transform="matrix(1.4097239,0,0,1.4097239,-7.1697675,62.725364)">
      <path
         d="m 13.078125,-150 -3.984375,5.34375 0,-5.34375 -4.0078125,0 0,-7.99219 7.9921875,0 0,7.99219 z m 9.328125,0 -3.984375,5.34375 0,-5.34375 -4.007812,0 0,-7.99219 7.992187,0 0,7.99219 z"
         style="font-style:normal;font-variant:normal;font-weight:normal;font-stretch:normal;font-family:'SF Sports Night Upright';-inkscape-font-specification:'SF Sports Night Upright';fill:#e6e6db;fill-opacity:1"
         id="path6079"
         inkscape:connector-curvature="0" />
    </g>
    <path
       style="color:#000000;display:inline;overflow:visible;visibility:visible;opacity:1;fill:#000000;fill-opacity:1;fill-rule:nonzero;stroke:none;stroke-width:2;stroke-linecap:round;stroke-linejoin:round;stroke-miterlimit:4;stroke-dasharray:none;stroke-dashoffset:0;stroke-opacity:1;marker:none;enable-background:accumulate"
       d="M 75 120 C 66.715729 120 60 126.71573 60 135 C 60 143.28427 66.715729 150 75 150 C 83.284271 150 90 143.28427 90 135 C 90 126.71573 83.284271 120 75 120 z M 75.310547 128.19922 C 76.479457 128.19922 77.528502 128.43916 78.457031 128.91992 C 79.390273 129.39597 80.12674 130.1073 80.664062 131.05469 C 81.12126 131.87009 81.349609 132.75608 81.349609 133.71289 C 81.349609 135.07976 80.867775 136.29302 79.90625 137.35352 C 79.048421 138.30561 78.10988 138.7832 77.091797 138.7832 C 76.766576 138.7832 76.503455 138.73375 76.300781 138.63477 C 76.102821 138.53579 75.957548 138.3928 75.863281 138.20898 C 75.802008 138.09115 75.756796 137.88908 75.728516 137.60156 C 75.422148 137.95506 75.077094 138.24022 74.695312 138.45703 C 74.318244 138.66913 73.940375 138.77539 73.558594 138.77539 C 73.139106 138.77539 72.729905 138.6533 72.333984 138.4082 C 71.938063 138.16311 71.615042 137.78638 71.365234 137.27734 C 71.12014 136.7683 70.998047 136.20958 70.998047 135.60156 C 70.998047 134.85214 71.188531 134.10294 71.570312 133.35352 C 71.956807 132.59938 72.435545 132.03332 73.005859 131.65625 C 73.576175 131.27918 74.130647 131.08984 74.667969 131.08984 C 75.07803 131.08984 75.469443 131.1992 75.841797 131.41602 C 76.214152 131.62812 76.534074 131.95228 76.802734 132.39062 L 77.042969 131.29492 L 78.308594 131.29492 L 77.291016 136.03906 C 77.149615 136.69892 77.078125 137.06406 77.078125 137.13477 C 77.078125 137.26203 77.126436 137.37253 77.220703 137.4668 C 77.319683 137.55635 77.437531 137.60156 77.574219 137.60156 C 77.824026 137.60156 78.151293 137.45744 78.556641 137.16992 C 79.093963 136.79285 79.517044 136.28979 79.828125 135.6582 C 80.14392 135.0219 80.302734 134.36541 80.302734 133.69141 C 80.302734 132.90427 80.100662 132.16976 79.695312 131.48633 C 79.294678 130.80289 78.693847 130.25576 77.892578 129.8457 C 77.096022 129.43564 76.214284 129.23047 75.248047 129.23047 C 74.145124 129.23047 73.135092 129.48934 72.220703 130.00781 C 71.311027 130.52157 70.603938 131.26228 70.099609 132.22852 C 69.599995 133.19004 69.351562 134.22325 69.351562 135.32617 C 69.351562 136.48095 69.599995 137.47433 70.099609 138.30859 C 70.603938 139.14285 71.329961 139.75838 72.277344 140.1543 C 73.22944 140.55494 74.28273 140.75586 75.4375 140.75586 C 76.672397 140.75586 77.708706 140.54759 78.542969 140.13281 C 79.377231 139.71804 80.001241 139.21302 80.416016 138.61914 L 81.695312 138.61914 C 81.454934 139.11404 81.04344 139.61906 80.458984 140.13281 C 79.87453 140.64657 79.17903 141.05267 78.373047 141.34961 C 77.567065 141.65126 76.594902 141.80078 75.458984 141.80078 C 74.412621 141.80078 73.446656 141.6671 72.560547 141.39844 C 71.679151 141.12978 70.92685 140.72367 70.304688 140.18164 C 69.682525 139.64431 69.214232 139.02455 68.898438 138.32227 C 68.502516 137.43145 68.304687 136.46973 68.304688 135.4375 C 68.304688 134.28745 68.540384 133.19204 69.011719 132.15039 C 69.586747 130.87308 70.401241 129.89552 71.457031 129.2168 C 72.517535 128.53807 73.802276 128.19922 75.310547 128.19922 z M 74.759766 132.14453 C 74.458112 132.14453 74.172958 132.22141 73.904297 132.37695 C 73.640349 132.52778 73.38262 132.77197 73.132812 133.11133 C 72.883005 133.45069 72.68403 133.86414 72.533203 134.34961 C 72.382376 134.83508 72.306641 135.2802 72.306641 135.68555 C 72.306641 136.33128 72.459257 136.83319 72.765625 137.19141 C 73.071992 137.54962 73.422438 137.72852 73.818359 137.72852 C 74.082307 137.72852 74.362069 137.65163 74.654297 137.49609 C 74.946524 137.33584 75.224334 137.10015 75.488281 136.78906 C 75.756942 136.47798 75.974851 136.08347 76.144531 135.60742 C 76.314212 135.12666 76.400391 134.64678 76.400391 134.16602 C 76.400391 133.525 76.240429 133.02732 75.919922 132.67383 C 75.604127 132.32032 75.21696 132.14453 74.759766 132.14453 z "
       transform="translate(0,-340)"
       id="path6144" />
    <path
       style="color:#000000;display:inline;overflow:visible;visibility:visible;opacity:1;fill:#544d4c;fill-opacity:1;fill-rule:nonzero;stroke:none;stroke-width:2;stroke-linecap:round;stroke-linejoin:round;stroke-miterlimit:4;stroke-dasharray:none;stroke-dashoffset:0;stroke-opacity:1;marker:none;enable-background:accumulate"
       d="M 15 260 C 6.7157288 260 0 266.71573 0 275 C -5.5228477e-007 283.28427 6.7157284 290 15 290 C 23.284272 290 30.000001 283.28427 30 275 C 30 266.71573 23.284271 260 15 260 z M 19.095703 266.43164 L 19.095703 267.9668 L 19.095703 269.50391 L 17.939453 269.50391 C 16.81522 269.50391 16.776003 269.508 16.589844 269.66797 L 16.398438 269.83203 L 16.376953 270.93164 L 16.355469 272.0293 L 17.726562 272.0293 L 19.095703 272.0293 L 19.097656 272.18359 C 19.098427 272.26809 19.046192 272.92942 18.982422 273.65234 L 18.867188 274.9668 L 17.615234 274.9668 L 16.365234 274.9668 L 16.365234 279.26758 L 16.365234 283.56836 L 14.554688 283.56836 L 12.746094 283.56836 L 12.746094 279.26758 L 12.746094 274.9668 L 11.824219 274.9668 L 10.902344 274.9668 L 10.902344 273.49805 L 10.902344 272.0293 L 11.824219 272.0293 L 12.746094 272.0293 L 12.746094 270.5918 C 12.746094 268.88131 12.824505 268.42177 13.224609 267.80273 C 13.526771 267.33523 13.977061 266.97535 14.521484 266.76562 C 15.196991 266.5054 15.825454 266.43609 17.507812 266.43359 L 19.095703 266.43164 z "
       transform="translate(0,-340)"
       id="path3351" />
    <path
       id="path4169"
       d="m 75,-80 c -8.284271,0 -15,6.71573 -15,15 -10e-7,8.28427 6.715728,15 15,15 8.284272,0 15.000001,-6.71573 15,-15 0,-8.28427 -6.715729,-15 -15,-15 z m 4.095703,6.43164 0,1.53516 0,1.53711 -1.15625,0 c -1.124233,0 -1.16345,0.0041 -1.349609,0.16406 l -0.191406,0.16406 -0.02148,1.09961 -0.02148,1.09766 1.371093,0 1.369141,0 0.002,0.15429 c 7.71e-4,0.0845 -0.05146,0.74583 -0.115234,1.46875 l -0.115234,1.31446 -1.251954,0 -1.25,0 0,4.30078 0,4.30078 -1.810546,0 -1.808594,0 0,-4.30078 0,-4.30078 -0.921875,0 -0.921875,0 0,-1.46875 0,-1.46875 0.921875,0 0.921875,0 0,-1.4375 c 0,-1.71049 0.07841,-2.17003 0.478515,-2.78907 0.302162,-0.4675 0.752452,-0.82738 1.296875,-1.03711 0.675507,-0.26022 1.30397,-0.32953 2.986328,-0.33203 l 1.587891,-0.0019 z"
       style="color:#000000;display:inline;overflow:visible;visibility:visible;opacity:1;fill:#cd6405;fill-opacity:1;fill-rule:nonzero;stroke:none;stroke-width:2;stroke-linecap:round;stroke-linejoin:round;stroke-miterlimit:4;stroke-dasharray:none;stroke-dashoffset:0;stroke-opacity:1;marker:none;enable-background:accumulate"
       inkscape:connector-curvature="0" />
  </g>
</svg>
